<svg width="633" height="545" viewBox="0 0 633 545" fill="none" xmlns="http://www.w3.org/2000/svg">
<g clip-path="url(#clip0_119_32)">
<path d="M64.1812 1052.16C88.7368 1070.02 111.928 1087.88 136.484 1105.73C279.724 1001.34 420.237 903.816 538.922 789.808L495.268 727.997L64.1812 1052.16ZM-51.7755 965.627C-39.4977 975.242 -28.5842 983.483 -16.3065 991.725C-8.12127 997.219 -1.30021 1002.71 6.88498 1009.58L495.268 637.341L590.761 740.36C607.132 723.877 622.138 706.02 638.508 688.164L495.268 546.685L-51.7755 965.627ZM-165.004 876.344C-145.905 891.453 -126.806 906.563 -109.072 921.672L495.268 454.655L682.163 631.847C695.805 612.617 709.447 593.387 721.724 574.157L495.268 363.999L-165.004 876.344ZM-274.14 782.94C-256.405 798.05 -238.671 814.533 -220.936 829.642L495.268 273.342L758.558 512.345C769.471 491.742 780.385 469.764 789.934 447.787L495.268 182.686L-274.14 782.94ZM-375.09 681.296C-361.448 697.779 -345.078 714.262 -327.343 733.492L495.268 90.6563L817.218 377.735C825.403 354.384 832.224 329.659 839.045 304.935L495.268 0L-375.09 681.296Z" fill="#5DBA51"/>
</g>
<defs>
<clipPath id="clip0_119_32">
<rect width="633" height="545" fill="white"/>
</clipPath>
</defs>
</svg>
