<svg width="923" height="613" viewBox="0 0 923 613" fill="none" xmlns="http://www.w3.org/2000/svg">
<g clip-path="url(#clip0_407_2653)">
<path d="M299.771 1183.44C327.425 1203.53 353.543 1223.61 381.198 1243.69C542.514 1126.28 700.757 1016.59 834.419 888.353L785.256 818.83L299.771 1183.44ZM169.182 1086.11C183.009 1096.92 195.299 1106.19 209.127 1115.46C218.345 1121.64 226.026 1127.82 235.245 1135.55L785.256 716.863L892.801 832.735C911.237 814.195 928.137 794.111 946.573 774.026L785.256 614.895L169.182 1086.11ZM41.6649 985.686C63.1738 1002.68 84.6826 1019.68 104.655 1036.67L785.256 511.382L995.736 710.683C1011.1 689.053 1026.46 667.424 1040.29 645.794L785.256 409.415L41.6649 985.686ZM-81.2428 880.628C-61.2703 897.623 -41.2978 916.163 -21.3253 933.157L785.256 307.448L1081.77 576.271C1094.06 553.096 1106.35 528.377 1117.11 503.658L785.256 205.48L-81.2428 880.628ZM-194.932 766.302C-179.569 784.841 -161.133 803.381 -141.16 825.01L785.256 101.968L1147.83 424.865C1157.05 398.6 1164.73 370.791 1172.42 342.982L785.256 0L-194.932 766.302Z" fill="#5DBA51"/>
</g>
<defs>
<clipPath id="clip0_407_2653">
<rect width="923" height="613" fill="white"/>
</clipPath>
</defs>
</svg>
