<svg width="630" height="485" viewBox="0 0 630 485" fill="none" xmlns="http://www.w3.org/2000/svg">
<g clip-path="url(#clip0_372_4332)">
<path d="M119.103 936.328C140.966 952.219 161.615 968.109 183.478 984C311.011 891.101 436.116 804.313 541.786 702.857L502.919 647.851L119.103 936.328ZM15.8618 859.319C26.7933 867.876 36.5101 875.21 47.4415 882.544C54.7292 887.434 60.8023 892.323 68.0899 898.435L502.919 567.175L587.942 658.852C602.517 644.184 615.878 628.293 630.453 612.403L502.919 486.499L15.8618 859.319ZM-84.9506 779.866C-67.9461 793.312 -50.9416 806.758 -35.1517 820.204L502.919 404.601L669.32 562.286C681.466 545.173 693.612 528.06 704.544 510.947L502.919 323.926L-84.9506 779.866ZM-182.119 696.745C-166.329 710.191 -150.539 724.86 -134.749 738.306L502.919 243.25L737.338 455.94C747.055 437.605 756.772 418.047 765.274 398.49L502.919 162.574L-182.119 696.745ZM-272 606.291C-259.854 620.959 -245.279 635.628 -229.489 652.741L502.919 80.6758L789.566 336.149C796.854 315.369 802.927 293.366 809 271.364L502.919 0L-272 606.291Z" fill="#0CAECC"/>
</g>
<defs>
<clipPath id="clip0_372_4332">
<rect width="630" height="485" fill="white"/>
</clipPath>
</defs>
</svg>
