<svg width="80" height="87" viewBox="0 0 80 87" fill="none" xmlns="http://www.w3.org/2000/svg">
<path d="M80 0H0V87H80V0Z" fill="black"/>
<path d="M11.435 62.02C11.435 62.4078 11.9278 62.5601 13.7358 62.5601C15.7246 62.5601 15.9758 62.4303 15.9758 62.1883C15.9758 61.9303 15.8398 61.8004 13.4478 61.7251C10.2222 61.6194 9.36461 61.0857 9.36461 59.9077C9.36461 58.6529 10.5038 57.999 13.5854 57.999C16.8654 57.999 17.8974 58.4093 17.8974 59.7331C17.8974 59.8468 17.8974 59.9606 17.8894 60.0904C17.6622 60.076 17.259 60.068 16.8718 60.068C16.4702 60.068 16.067 60.076 15.8398 60.0904V59.9462C15.8398 59.5584 15.5662 59.4286 13.555 59.4286C11.7022 59.4286 11.4302 59.5423 11.4302 59.7715C11.4302 59.9991 11.5742 60.0985 14.1182 60.2283C17.1326 60.3805 18.0574 60.8212 18.0574 62.0985C18.0574 63.4287 17.003 64.0682 13.7614 64.0682C10.451 64.0682 9.32141 63.5136 9.32141 62.3566C9.32141 62.2203 9.32941 62.0745 9.35181 61.9238C9.61741 61.9543 10.019 61.9767 10.3998 61.9767C10.787 61.9767 11.1518 61.9687 11.4398 61.9543V62.02H11.435Z" fill="white"/>
<path d="M28.0117 63.8831C28.0421 63.069 28.0645 62.2789 28.0725 61.3366C28.0725 60.9487 28.1029 60.5305 28.1253 60.1282L28.0725 60.1138C27.8821 60.4936 27.6709 60.8894 27.4117 61.2244L25.4069 63.8863H24.3669L22.1205 60.891C21.8693 60.5561 21.6501 60.1619 21.4597 59.7965L21.4069 59.8109C21.4293 60.2067 21.4597 60.601 21.4677 61.0353C21.4757 62.0994 21.4981 62.9889 21.5429 63.8863H19.5077C19.5525 63.0658 19.5685 62.2356 19.5685 61.0273C19.5685 59.7804 19.5541 58.9278 19.5301 58.1826H22.5813C22.9989 58.798 23.6213 59.7259 24.4037 60.859C24.6085 61.1475 24.8293 61.4744 25.0421 61.8094H25.0869C25.2917 61.4664 25.4885 61.1395 25.6789 60.859C26.4069 59.7724 27.0901 58.7836 27.5013 58.1826H30.1957C30.1733 58.9278 30.1509 59.7788 30.1509 61.0273C30.1509 62.2356 30.1589 63.0658 30.2117 63.8863H28.0117V63.8831Z" fill="white"/>
<path d="M38.977 63.8828C38.9082 63.7161 38.7258 63.3427 38.4762 62.8796C37.6874 62.8715 36.889 62.8715 36.2826 62.8715C35.729 62.8715 34.9162 62.8715 34.1498 62.8796C33.8922 63.3123 33.6874 63.6777 33.5882 63.8828H31.0906C32.1754 62.3779 34.2794 59.1839 34.7722 58.1807H37.9306C38.4474 59.1839 40.5498 62.3395 41.681 63.8828H38.977ZM35.8122 60.1487C35.5546 60.559 35.2586 61.0381 34.969 61.5173C35.4474 61.5253 35.9258 61.5253 36.2906 61.5253C36.6858 61.5253 37.201 61.5253 37.7178 61.5173C37.4362 61.0301 37.1402 60.5445 36.8746 60.1327C36.6394 59.7753 36.473 59.4788 36.3434 59.2432L35.8122 60.1487Z" fill="white"/>
<path d="M49.0276 61.5484C50.3556 61.6782 50.9636 61.8914 51.2068 62.7568C51.3428 63.2504 51.4644 63.6623 51.5636 63.8818H49.674C49.3332 63.8818 49.2724 63.8065 49.082 63.0613C48.9156 62.3914 48.6644 62.2696 47.2836 62.2696H44.5668C44.5812 62.9154 44.6116 63.4716 44.658 63.8818H42.4868C42.5012 63.0533 42.5172 62.2552 42.5172 61.0308C42.5172 59.8224 42.5092 59.0002 42.4868 58.1797H48.1348C50.1924 58.1797 51.1556 58.7198 51.1556 59.8753C51.1556 60.8561 50.5172 61.3577 49.0308 61.518V61.5484H49.0276ZM47.4708 60.8497C48.6932 60.8497 49.1332 60.6445 49.1332 60.2262C49.1332 59.7935 48.7012 59.6477 47.4932 59.6477C46.9156 59.6477 45.2996 59.6557 44.5332 59.6781C44.5332 60.066 44.5332 60.4538 44.5412 60.8256C45.0884 60.8497 46.2484 60.8497 47.4708 60.8497Z" fill="white"/>
<path d="M60.0848 58.1797C60.0704 58.4008 60.0704 58.7342 60.0704 59.0307C60.0704 59.3192 60.0704 59.6765 60.0848 59.9201C59.0304 59.8897 57.9824 59.8897 57.0704 59.8897C57.0704 61.7984 57.0784 63.4475 57.1008 63.8898C56.8208 63.8674 56.3488 63.8674 56.0304 63.8674C55.712 63.8674 55.264 63.8674 54.96 63.8898C54.9824 63.4491 54.9984 61.8064 54.9984 59.8897C54.088 59.8897 53.04 59.8897 51.984 59.9201C51.992 59.6765 51.992 59.3272 51.992 59.0307C51.992 58.7342 51.992 58.4073 51.984 58.1797H60.0848Z" fill="white"/>
<path d="M14.1283 73.2637C10.5907 73.2637 9.14111 72.0009 9.14111 70.1386C9.14111 68.1994 10.7427 67.0439 14.1283 67.0439C17.5139 67.0439 19.1155 68.1994 19.1155 70.1386C19.1155 72.0025 17.6659 73.2637 14.1283 73.2637ZM16.9827 70.1466C16.9827 69.2107 16.2467 68.6947 14.1283 68.6947C12.0099 68.6947 11.2739 69.2123 11.2739 70.1466C11.2739 71.0665 12.0019 71.6146 14.1283 71.6146C16.2627 71.6146 16.9827 71.0665 16.9827 70.1466Z" fill="white"/>
<path d="M27.0251 70.6714C28.3531 70.8013 28.9611 71.0144 29.2043 71.8798C29.3403 72.3734 29.4619 72.7853 29.5611 73.0049H27.6715C27.3307 73.0049 27.2699 72.9295 27.0795 72.1843C26.9131 71.5144 26.6619 71.3926 25.2811 71.3926H22.5643C22.5787 72.0385 22.6091 72.5946 22.6555 73.0049H20.4843C20.4987 72.1763 20.5147 71.3782 20.5147 70.1538C20.5147 68.9454 20.5067 68.1233 20.4843 67.3027H26.1323C28.1899 67.3027 29.1531 67.8428 29.1531 68.9983C29.1531 69.9791 28.5147 70.4807 27.0283 70.641V70.6714H27.0251ZM25.4683 69.9727C26.6907 69.9727 27.1307 69.7676 27.1307 69.3493C27.1307 68.9166 26.6987 68.7707 25.4907 68.7707C24.9131 68.7707 23.2971 68.7787 22.5307 68.8012C22.5307 69.189 22.5307 69.5769 22.5387 69.9487C23.0859 69.9727 24.2475 69.9727 25.4683 69.9727Z" fill="white"/>
<path d="M37.6499 73.0058C37.5811 72.8392 37.3987 72.4658 37.1491 72.0026C36.3603 71.9946 35.5619 71.9946 34.9555 71.9946C34.4019 71.9946 33.5891 71.9946 32.8227 72.0026C32.5651 72.4353 32.3603 72.8007 32.2611 73.0058H29.7635C30.8483 71.501 32.9523 68.307 33.4451 67.3037H36.6035C37.1203 68.307 39.2227 71.4625 40.3539 73.0058H37.6499ZM34.4851 69.2717C34.2275 69.682 33.9315 70.1612 33.6419 70.6404C34.1203 70.6484 34.5987 70.6484 34.9635 70.6484C35.3587 70.6484 35.8739 70.6484 36.3907 70.6404C36.1091 70.1532 35.8131 69.6676 35.5475 69.2557C35.3123 68.8983 35.1459 68.6018 35.0163 68.3662L34.4851 69.2717Z" fill="white"/>
<path d="M50.2948 67.3037C50.2724 68.0041 50.2644 68.9384 50.2644 70.1484C50.2644 71.4032 50.2644 72.2462 50.2788 73.0075H48.1156C47.6676 72.4978 45.3076 70.8856 44.002 69.9737C43.6836 69.7461 43.3572 69.5169 43.0916 69.2749C43.122 69.7317 43.13 70.1868 43.1444 70.6516C43.1524 71.8295 43.1588 72.6581 43.1828 73.0091H41.2308C41.2308 72.2414 41.2532 71.3744 41.2532 70.158C41.2532 68.9496 41.2532 68.0826 41.2308 67.3069H43.706C43.986 67.6723 46.5908 69.5266 47.7524 70.3263C48.026 70.509 48.2996 70.6532 48.5044 70.8503C48.474 70.432 48.4596 70.0298 48.4596 69.7173C48.4596 68.6611 48.4372 67.7108 48.4068 67.3069H50.2948V67.3037Z" fill="white"/>
<path d="M56.7164 73.1886C53.5212 73.1886 51.6604 72.2687 51.6604 70.1164C51.6604 67.8503 53.5964 67.1211 56.6028 67.1211C59.4716 67.1211 61.2476 67.5923 61.2476 69.2959C61.2476 69.3487 61.2476 69.4096 61.2396 69.4625C61.0124 69.4465 60.6092 69.4401 60.222 69.4401C59.8044 69.4401 59.4092 69.4481 59.174 69.4625C59.174 69.4321 59.182 69.4016 59.182 69.3712C59.182 68.8391 58.4604 68.6708 56.5932 68.6708C54.6188 68.6708 53.7996 69.0747 53.7996 70.1533C53.7996 71.1341 54.566 71.6581 56.7148 71.6581C58.3164 71.6581 59.022 71.4145 59.2268 70.8985C58.1724 70.8985 56.7516 70.9065 55.8108 70.9289C55.8188 70.8151 55.8188 70.5715 55.8188 70.4578C55.8188 70.2526 55.8188 70.0699 55.8108 69.9257C57.0412 69.9481 58.3004 69.9417 59.2188 69.9417C59.7804 69.9417 60.502 69.9497 61.254 69.9257C61.3932 71.9786 60.8764 73.1886 56.7164 73.1886Z" fill="white"/>
<path d="M70.8569 67.3037C70.8489 67.4704 70.8425 67.7364 70.8425 67.9736C70.8425 68.2172 70.8425 68.4913 70.8569 68.6499C69.2777 68.6419 66.4233 68.6355 65.0041 68.6355V69.5105C66.6441 69.5105 69.5049 69.5105 70.7737 69.4881C70.7657 69.7846 70.7593 70.3936 70.7657 70.7125C69.5209 70.6981 66.6281 70.682 65.0041 70.682V71.5715C66.4233 71.5715 69.3769 71.5635 70.8569 71.5571C70.8425 71.7398 70.8425 72.0283 70.8425 72.2943C70.8425 72.5379 70.8425 72.8183 70.8569 73.0091H62.8329C62.8633 72.2334 62.8633 71.3744 62.8633 70.158C62.8633 68.9496 62.8633 68.0746 62.8329 67.3069H70.8569V67.3037Z" fill="white"/>
<path d="M18.8785 42.9023C18.4385 42.9023 18.0241 42.8527 17.6369 42.7501C16.3121 42.3975 15.3905 41.4343 14.9665 39.9615C11.6049 37.3717 9.60807 33.7145 9.34087 29.6551C9.04807 25.2222 10.8017 20.8711 14.2785 17.403L14.5089 17.1738L14.5953 17.4863C15.9313 22.3455 22.8593 30.7609 30.0369 36.2466L30.2097 36.3781L30.0561 36.5319C26.0065 40.5737 21.8705 42.9023 18.8785 42.9023ZM14.3217 17.8982C11.0737 21.2509 9.44007 25.4049 9.71847 29.6294C9.97927 33.5991 11.9425 37.1746 15.2465 39.6987L15.2977 39.7372L15.3137 39.7981C15.6961 41.1875 16.5105 42.0578 17.7329 42.3815C18.0945 42.4776 18.4849 42.5241 18.8977 42.5241C21.7393 42.5241 25.7041 40.2917 29.6337 36.4133C22.6113 31.0013 15.8625 22.8247 14.3217 17.8982Z" fill="white"/>
<path d="M17.9354 42.7971C14.2698 39.9957 10.7274 35.6814 10.0394 33.1781L10.4042 33.0771C11.0746 35.5131 14.5562 39.7377 18.1642 42.4958L17.9354 42.7971Z" fill="white"/>
<path d="M23.2403 41.5591C16.9891 36.7817 10.9507 29.432 9.78113 25.1723L10.1459 25.0713C11.2979 29.2621 17.2755 36.5236 23.4707 41.2578L23.2403 41.5591Z" fill="white"/>
<path d="M15.0606 40.0262C13.115 39.2233 11.883 37.7761 11.4974 35.8369C10.7902 32.2807 12.9582 27.5738 17.2958 23.2451L17.563 23.5128C13.315 27.7517 11.187 32.3304 11.8686 35.7616C12.227 37.5694 13.3822 38.922 15.2046 39.6736L15.0606 40.0262Z" fill="white"/>
<path d="M14.4588 40.3176C14.3564 40.3176 14.2716 40.2839 14.2092 40.2038C14.0796 40.0339 13.862 39.7518 16.31 36.9232C17.8764 35.1122 20.142 32.7227 22.8588 30.0127L23.126 30.2803C17.0764 36.3174 14.7308 39.2775 14.5388 39.9265C14.6188 39.9041 14.7692 39.8432 15.0364 39.6877L15.2268 40.0147C14.9468 40.1765 14.6684 40.3176 14.4588 40.3176Z" fill="white"/>
<path d="M26.0992 43.5718C24.1472 43.5718 22.2128 43.2945 20.3792 42.732C19.3664 42.9516 18.4416 42.9644 17.6384 42.7512C16.2944 42.3939 15.3664 41.4083 14.952 39.9018L14.8032 39.3601L15.2496 39.7015C16.8016 40.8874 18.552 41.7672 20.408 42.3458C23.104 41.7304 26.4656 39.5845 29.792 36.2654L29.9088 36.1484L30.04 36.2494C33.056 38.554 35.2192 39.7063 36.7456 40.248C38.0688 39.4498 39.3072 38.4931 40.4208 37.3809L40.6512 37.1517L40.7376 37.4642C41.2928 39.4851 40.7504 40.3569 40.1968 40.7303C39.4688 41.2223 38.2944 41.1855 36.7856 40.663C33.5264 42.5862 29.7808 43.5718 26.0992 43.5718ZM21.096 42.5477C26.0512 43.8811 31.672 43.1471 36.3232 40.4948C34.552 39.7992 32.3712 38.4979 29.9392 36.6517C26.8528 39.7047 23.7232 41.7608 21.096 42.5477ZM15.5024 40.3585C15.9344 41.4259 16.6832 42.107 17.7344 42.3859C18.3024 42.5365 18.936 42.567 19.6256 42.4836C18.1616 41.9644 16.7728 41.2576 15.5024 40.3585ZM37.2144 40.4018C38.9952 40.9339 39.7696 40.5621 39.9824 40.4178C40.7152 39.9226 40.6656 38.8216 40.4496 37.8809C39.4544 38.8408 38.368 39.6822 37.2144 40.4018Z" fill="white"/>
<path d="M22.5746 45.0972C21.5378 45.0972 19.8866 44.2894 17.9346 42.7974L18.1634 42.4961C20.941 44.6196 22.5442 44.9545 23.0738 44.5971C23.4402 44.3487 23.3618 43.7333 23.2322 43.2605L23.597 43.1596C23.893 44.2333 23.5906 44.7045 23.2866 44.9113C23.101 45.0363 22.861 45.0972 22.5746 45.0972Z" fill="white"/>
<path d="M31.0832 45.4727C29.3536 45.4727 26.5616 44.0961 23.24 41.5591L23.4688 41.2578C27.4272 44.282 30.7872 45.6955 32.0256 44.8557C32.7184 44.3877 32.584 43.2739 32.3504 42.4213L32.7152 42.3204C33.1984 44.08 32.7232 44.8413 32.2384 45.1698C31.9376 45.3733 31.5488 45.4727 31.0832 45.4727Z" fill="white"/>
<path d="M25.1256 45.4168C24.7352 45.4168 24.3448 45.3992 23.9576 45.3623C20.3208 45.0226 17.132 43.1042 14.9784 39.9599L15.2904 39.7451C17.38 42.7949 20.4712 44.6556 23.9944 44.9841C28.1576 45.3735 32.5528 43.5914 36.0552 40.0961L36.3224 40.3637C33.0632 43.6155 29.0408 45.4168 25.1256 45.4168Z" fill="white"/>
<path d="M28.1446 45.7039C28.0742 45.7039 28.0038 45.7039 27.9334 45.7023C23.0598 45.6446 18.4646 43.6125 14.9974 39.981L15.271 39.7197C18.6678 43.2759 23.167 45.2664 27.9398 45.3241C28.0086 45.3241 28.0774 45.3257 28.1478 45.3257C32.5878 45.3257 36.743 43.6157 39.8694 40.4954L40.1366 40.763C36.935 43.9555 32.6854 45.7039 28.1446 45.7039Z" fill="white"/>
<path d="M26.0992 43.568C22.0928 43.568 18.16 42.3997 15.0176 39.9989L14.9664 39.9605L14.9504 39.8996C13.5888 34.9475 18.056 25.3558 24.9104 18.5174L25.0272 18.4004L25.1584 18.5014C32.3936 24.0304 39.3808 32.5355 40.736 37.462L40.7648 37.5678L40.6864 37.6463C36.7792 41.5439 31.3744 43.568 26.0992 43.568ZM15.2976 39.7377C22.4064 45.1257 33.6016 44.1017 40.3408 37.4572C38.9424 32.6125 32.1392 24.3509 25.0608 18.9036C18.3872 25.6186 14.0304 34.9138 15.2976 39.7377Z" fill="white"/>
<path d="M23.2328 43.259C22.5624 40.823 19.0824 36.5985 15.4728 33.8404L15.7016 33.5391C19.3672 36.3404 22.908 40.6547 23.5976 43.158L23.2328 43.259Z" fill="white"/>
<path d="M32.3529 42.4185C31.2009 38.2276 25.2233 30.9661 19.0281 26.232L19.2569 25.9307C25.5081 30.7081 31.5449 38.0577 32.7161 42.3175L32.3529 42.4185Z" fill="white"/>
<path d="M18.9588 40.7144C17.5172 40.7144 16.1956 40.4916 15.0612 40.0236L15.2052 39.6743C20.6868 41.934 30.6436 38.2832 37.4052 31.5361L37.6724 31.8038C32.2004 37.2639 24.6404 40.7144 18.9588 40.7144Z" fill="white"/>
<path d="M15.2281 40.0121L15.0377 39.6851C17.5017 38.2476 25.0393 31.555 31.8409 24.7695L32.1081 25.0372C25.2873 31.8435 17.7161 38.5617 15.2281 40.0121Z" fill="white"/>
<path d="M15.4623 40.343L15.0159 40.0016C11.6255 37.4102 9.60947 33.7353 9.34067 29.6567C9.05107 25.2575 10.7759 20.9384 14.1999 17.4815C13.6927 15.536 14.2255 14.6898 14.7695 14.3212C16.4015 13.217 20.2847 14.7795 25.1551 18.5024L25.3279 18.6338L25.1743 18.7877C18.4079 25.5411 13.9839 34.9678 15.3119 39.8013L15.4623 40.343ZM16.1039 14.3741C15.4527 14.3741 15.1135 14.5471 14.9823 14.6353C14.1647 15.1882 14.3199 16.4911 14.5935 17.488L14.6223 17.5937L14.5439 17.6723C11.1471 21.0634 9.43187 25.3104 9.71667 29.631C9.96627 33.4292 11.7759 36.8685 14.8271 39.3702C13.9071 34.3283 18.2239 25.2623 24.7535 18.6723C20.0255 15.0872 17.4239 14.3741 16.1039 14.3741Z" fill="white"/>
<path d="M15.4716 33.841C12.694 31.7191 11.0908 31.3826 10.5612 31.7399C10.1948 31.9883 10.2732 32.6038 10.4028 33.0765L10.038 33.1775C9.74197 32.1037 10.0444 31.6326 10.3484 31.4258C11.2092 30.8441 13.2092 31.6342 15.7004 33.5397L15.4716 33.841Z" fill="white"/>
<path d="M19.027 26.2358C15.0686 23.2117 11.7118 21.7982 10.4702 22.638C9.77739 23.1059 9.91179 24.2197 10.1454 25.0723L9.78059 25.1733C9.29739 23.4136 9.77259 22.6524 10.259 22.3238C11.6782 21.3639 15.043 22.7133 19.2574 25.9345L19.027 26.2358Z" fill="white"/>
<path d="M14.9763 39.96C10.1283 32.8844 11.7747 21.549 18.6451 14.6914L18.9123 14.959C12.1635 21.6933 10.5379 32.8123 15.2883 39.7452L14.9763 39.96Z" fill="white"/>
<path d="M14.9965 39.9823C8.02369 32.684 7.95169 21.1579 14.8333 14.2891L15.1005 14.5567C8.36289 21.2797 8.43809 32.5686 15.2701 39.7195L14.9965 39.9823Z" fill="white"/>
<path d="M29.9388 36.6503L29.8076 36.5493C22.5724 31.0203 15.5852 22.5152 14.23 17.5887L14.2012 17.4829L14.2796 17.4044C21.1532 10.5452 32.6684 9.48905 39.9468 15.0518L39.998 15.0902L40.014 15.1511C41.3756 20.1032 36.9084 29.6949 30.0556 36.5317L29.9388 36.6503ZM14.6236 17.5951C16.022 22.4398 22.8252 30.7014 29.9052 36.1487C36.5772 29.4337 40.934 20.1385 39.6652 15.3146C32.5564 9.92657 21.3628 10.9506 14.6236 17.5951Z" fill="white"/>
<path d="M35.7066 29.1186C29.4554 24.3412 23.4186 16.9916 22.2474 12.7318L22.6122 12.6309C23.7642 16.8217 29.7418 24.0832 35.937 28.8158L35.7066 29.1186Z" fill="white"/>
<path d="M39.262 21.5148C35.5964 18.7134 32.054 14.3976 31.366 11.8959L31.7308 11.7949C32.4012 14.2309 35.8812 18.4554 39.4908 21.2135L39.262 21.5148Z" fill="white"/>
<path d="M17.5613 23.5163L17.2941 23.2486C24.1533 16.4038 34.2957 12.7178 39.9037 15.0304L39.7597 15.3814C34.2797 13.1201 24.3213 16.7692 17.5613 23.5163Z" fill="white"/>
<path d="M23.1261 30.282L22.8589 30.0143C29.6781 23.2096 37.2493 16.4914 39.7373 15.041L39.9277 15.368C37.4621 16.8055 29.9261 23.4949 23.1261 30.282Z" fill="white"/>
<path d="M38.8686 41.0792C36.875 41.0792 33.6478 39.4862 29.8062 36.5518L29.6334 36.4204L29.787 36.2666C36.5534 29.5147 40.9774 20.0881 39.6478 15.2546L39.499 14.7129L39.9454 15.0542C43.3358 17.6457 45.3518 21.3205 45.6206 25.3992C45.9102 29.7984 44.1854 34.1175 40.7614 37.5727C41.2686 39.5183 40.7358 40.3645 40.1918 40.7331C39.8478 40.9655 39.403 41.0792 38.8686 41.0792ZM30.2094 36.3804C37.2734 41.7331 39.587 40.6834 39.9822 40.4174C40.7998 39.8645 40.6446 38.5615 40.371 37.5647L40.3422 37.4589L40.4206 37.3804C43.8174 33.9908 45.531 29.7439 45.2462 25.4232C44.9966 21.625 43.187 18.1858 40.1358 15.6841C41.0558 20.7275 36.739 29.792 30.2094 36.3804Z" fill="white"/>
<path d="M43.5511 33.0313C41.8215 33.0313 39.0295 31.6547 35.7079 29.1177L35.9367 28.8164C39.8951 31.8406 43.2535 33.2541 44.4935 32.4143C45.1863 31.9463 45.0519 30.8325 44.8183 29.9799L45.1831 29.8789C45.6663 31.6386 45.1911 32.3999 44.7063 32.7284C44.4055 32.9303 44.0167 33.0313 43.5511 33.0313Z" fill="white"/>
<path d="M43.9021 23.8149C42.8653 23.8149 41.2141 23.0072 39.2621 21.5152L39.4909 21.2139C42.2685 23.3357 43.8717 23.6723 44.4013 23.3149C44.7677 23.0665 44.6893 22.4511 44.5597 21.9783L44.9245 21.8774C45.2205 22.9511 44.9181 23.4223 44.6141 23.629C44.4269 23.7524 44.1885 23.8149 43.9021 23.8149Z" fill="white"/>
<path d="M36.3176 40.3636L36.0504 40.096C42.7992 33.3618 44.4248 22.2428 39.6744 15.3114L39.9864 15.0967C44.8344 22.1723 43.1896 33.506 36.3176 40.3636Z" fill="white"/>
<path d="M40.1327 40.7613L39.8655 40.4937C46.6015 33.7707 46.5263 22.4834 39.6943 15.3325L39.9679 15.0713C46.9407 22.3696 47.0143 33.8941 40.1327 40.7613Z" fill="white"/>
<path d="M40.4553 37.8772L40.3689 37.5647C39.0329 32.7055 32.1049 24.2902 24.9273 18.8044L24.7545 18.673L24.9081 18.5191C29.5529 13.8843 34.3113 11.5012 37.3257 12.3026C38.6505 12.6551 39.5737 13.6183 39.9961 15.0911C43.3577 17.681 45.3545 21.3381 45.6217 25.3976C45.9129 29.8288 44.1609 34.18 40.6857 37.648L40.4553 37.8772ZM25.3289 18.6345C32.3513 24.0498 39.1017 32.2248 40.6425 37.1528C43.8905 33.8017 45.5225 29.6477 45.2441 25.4232C44.9817 21.4535 43.0201 17.8781 39.7161 15.3539L39.6649 15.3155L39.6489 15.2546C39.2665 13.8651 38.4521 12.9949 37.2297 12.6712C34.3753 11.9099 29.8297 14.1936 25.3289 18.6345Z" fill="white"/>
<path d="M44.818 29.98C43.666 25.7891 37.6884 18.5276 31.4932 13.7935L31.722 13.4922C37.9732 18.2696 44.01 25.6192 45.1812 29.879L44.818 29.98Z" fill="white"/>
<path d="M44.5592 21.9758C43.8888 19.5398 40.4072 15.3153 36.7992 12.5572L37.028 12.2559C40.6936 15.0572 44.236 19.3715 44.924 21.8748L44.5592 21.9758Z" fill="white"/>
<path d="M37.6698 31.8052L37.4026 31.5376C41.649 27.3002 43.777 22.7215 43.0954 19.2903C42.737 17.4826 41.5834 16.1299 39.7594 15.3783L39.9034 15.0273C41.849 15.8303 43.081 17.2774 43.4666 19.2166C44.1738 22.7712 42.0058 27.4781 37.6698 31.8052Z" fill="white"/>
<path d="M32.1059 25.0389L31.8387 24.7713C37.8867 18.7358 40.2323 15.7758 40.4243 15.1267C40.3443 15.1491 40.1939 15.21 39.9267 15.3655L39.7363 15.0386C40.1539 14.795 40.5652 14.6043 40.754 14.8495C40.8835 15.0193 41.1011 15.3014 38.6531 18.13C37.0867 19.9394 34.8227 22.3289 32.1059 25.0389Z" fill="white"/>
<path d="M25.0588 18.9036L24.9276 18.8026C21.9132 16.4981 19.7484 15.3458 18.222 14.8041C16.8988 15.6022 15.6604 16.559 14.5452 17.6712L14.3148 17.9003L14.2284 17.5878C13.6732 15.5669 14.2156 14.6951 14.7692 14.3217C15.4972 13.8297 16.6716 13.8665 18.1804 14.389C23.1612 11.4498 29.2908 10.6998 34.5836 12.3216C35.598 12.1021 36.5228 12.0892 37.3244 12.3024C38.6684 12.6598 39.598 13.6454 40.0124 15.1519L40.1612 15.6935L39.7148 15.3522C38.1628 14.1662 36.4124 13.2864 34.5564 12.7079C31.8604 13.3233 28.4988 15.4692 25.174 18.7866L25.0588 18.9036ZM18.6412 14.5589C20.4124 15.2544 22.5932 16.5557 25.0252 18.402C28.11 15.349 31.2396 13.2928 33.8668 12.5075C28.9132 11.1741 23.2924 11.9081 18.6412 14.5589ZM16.1036 14.373C15.4524 14.373 15.1132 14.5461 14.982 14.6342C14.2492 15.1294 14.2988 16.2304 14.5148 17.1712C15.51 16.2112 16.598 15.3714 17.7516 14.6502C17.0588 14.4435 16.518 14.373 16.1036 14.373ZM35.3388 12.57C36.8012 13.0893 38.19 13.796 39.462 14.6951C39.03 13.6278 38.2812 12.9466 37.23 12.6678C36.662 12.5171 36.0268 12.4867 35.3388 12.57Z" fill="white"/>
<path d="M31.4926 13.7944C27.5342 10.7703 24.1742 9.35677 22.9358 10.1965C22.243 10.6645 22.3774 11.7783 22.611 12.6309L22.2462 12.7319C21.763 10.9722 22.2382 10.211 22.723 9.88243C24.1422 8.92246 27.507 10.2719 31.7214 13.4931L31.4926 13.7944Z" fill="white"/>
<path d="M36.7994 12.5555C34.0219 10.4337 32.4171 10.0971 31.8891 10.4561C31.5227 10.7045 31.6011 11.3199 31.7307 11.7927L31.3659 11.8937C31.0699 10.8199 31.3723 10.3487 31.6763 10.142C32.5355 9.56184 34.5354 10.3503 37.0282 12.2558L36.7994 12.5555Z" fill="white"/>
<path d="M39.6765 15.3109C37.5869 12.2612 34.4957 10.4005 30.9725 10.072C26.8077 9.68414 22.4141 11.4647 18.9133 14.96L18.6461 14.6923C22.2285 11.1185 26.7341 9.2979 31.0077 9.69536C34.6445 10.0351 37.8333 11.9535 39.9885 15.0978L39.6765 15.3109Z" fill="white"/>
<path d="M39.6965 15.3338C36.2981 11.7776 31.8005 9.78713 27.0277 9.72943C22.5013 9.67815 18.2741 11.3897 15.0997 14.5581L14.8325 14.2905C18.0293 11.0997 22.2789 9.34961 26.8197 9.34961C26.8901 9.34961 26.9605 9.34961 27.0309 9.35121C31.9045 9.40891 36.4997 11.441 39.9685 15.0726L39.6965 15.3338Z" fill="white"/>
<path d="M27.4253 45.8996C27.0973 45.8996 26.7517 45.8851 26.4909 45.8659C26.0526 45.8354 25.4398 45.7713 24.619 45.6688C24.1358 45.6079 23.5342 45.4749 23.1662 45.3803C22.5614 45.2232 21.7518 44.978 21.1502 44.7681C20.6302 44.587 19.4974 44.1142 18.515 43.5501C18.0606 43.2905 16.8542 42.5982 15.6174 41.5372C14.995 41.0035 14.051 40.1445 13.0398 38.8512C12.7054 38.4249 12.4478 38.0515 12.4462 38.0483C12.187 37.6717 12.187 37.6717 11.7918 37.0419C11.4862 36.5547 11.1646 35.9152 11.027 35.6428C10.8222 35.2341 10.6062 34.7501 10.475 34.4039C10.3774 34.1475 10.2766 33.8607 10.179 33.5754C10.0382 33.1972 9.9134 32.8109 9.8062 32.4199C9.6606 31.8526 9.4702 31.1041 9.3918 30.532C9.3182 29.9999 9.2366 29.3926 9.1982 28.9246C9.1822 28.7387 9.1326 28.0912 9.1454 27.5848L9.147 27.5047C9.1582 27.0383 9.1726 26.4581 9.2062 26.011C9.2366 25.62 9.3006 25.0815 9.3694 24.6408C9.6302 22.9933 10.051 21.8025 10.0686 21.7529C10.1934 21.4051 10.4238 20.756 10.6174 20.2977C10.7582 19.9643 10.987 19.4803 11.2302 19.0044C11.5902 18.2976 12.1438 17.4049 12.6062 16.7799C13.1982 15.9818 13.955 15.0924 14.5358 14.517C15.4158 13.6452 15.7598 13.384 16.9054 12.5185C17.3038 12.2173 17.867 11.8775 18.2542 11.6499C18.6078 11.4416 19.107 11.1756 19.5246 10.9736C19.9278 10.7781 20.5022 10.5313 20.987 10.3454C21.2622 10.2396 21.595 10.1322 21.9182 10.0297C22.059 9.9848 22.195 9.94153 22.3166 9.89986C22.7694 9.74922 23.3678 9.62101 23.8926 9.51363C24.1774 9.45594 24.5198 9.40465 24.851 9.35658C24.9918 9.33574 25.1262 9.31651 25.2494 9.29728C25.7534 9.21715 26.419 9.1867 26.9437 9.17067C27.3933 9.15465 27.9197 9.15945 28.2829 9.18029C28.8077 9.21074 29.5389 9.27965 30.1421 9.35658C30.9981 9.46555 31.7629 9.66749 32.5709 9.88224C33.1741 10.0425 33.9741 10.3246 34.5613 10.5826C35.1053 10.823 35.5117 11.0105 35.8013 11.1595C36.1677 11.347 36.6573 11.6211 37.0189 11.8422C37.3949 12.0714 37.8253 12.3535 38.1149 12.5618C38.5469 12.8743 38.6925 12.9785 39.3405 13.5154C39.4109 13.5747 39.7805 13.8872 40.2653 14.3568C40.6349 14.7157 40.9437 15.0539 41.0925 15.2158C41.2717 15.4129 41.6717 15.8776 41.9229 16.2046C42.3293 16.7302 42.4013 16.8392 42.8061 17.4354C43.1101 17.8857 43.6477 18.8088 43.9389 19.4226C44.1629 19.8938 44.5373 20.6839 44.8429 21.6198C45.1757 22.6359 45.4045 23.5302 45.5245 24.277C45.6461 25.0334 45.7837 25.8876 45.8093 27.1136C45.8381 28.4582 45.7181 29.5192 45.6445 30.032C45.5693 30.5561 45.4301 31.5337 45.0157 32.9071C44.7661 33.7357 44.3149 34.7998 43.9805 35.5466C43.8269 35.8896 43.5805 36.3463 43.2269 36.9425C43.0733 37.2037 42.8701 37.505 42.6749 37.7951C42.5901 37.9233 42.5069 38.0451 42.4333 38.1589C42.1581 38.5804 41.7389 39.0948 41.4381 39.4362L41.3837 39.4987C41.0221 39.909 40.5741 40.4186 40.1821 40.7712C40.0941 40.8513 39.9981 40.9378 39.8989 41.0292C39.6301 41.2744 39.3261 41.5516 39.0701 41.76C38.7165 42.0485 38.1949 42.4619 37.7693 42.7328L37.4765 42.9203C37.1725 43.1158 36.8269 43.337 36.5421 43.4988C36.1021 43.7472 35.5261 44.0421 35.1101 44.2328C33.6397 44.9059 32.3709 45.2329 32.2317 45.2681C31.3661 45.4845 30.2333 45.6784 29.5245 45.7778C29.1389 45.8322 28.6557 45.8515 28.2285 45.8691C28.0877 45.8755 27.9533 45.8803 27.8285 45.8867C27.7053 45.8963 27.5661 45.8996 27.4253 45.8996ZM12.9582 38.1124C13.059 38.2502 13.1902 38.4281 13.3374 38.6156C14.3294 39.8833 15.2542 40.7247 15.8638 41.2487C17.0734 42.2872 18.2574 42.9652 18.7022 43.22C19.6638 43.7713 20.7662 44.2328 21.275 44.4091C21.867 44.6143 22.6654 44.8562 23.2622 45.0117C23.7326 45.1335 24.283 45.2441 24.667 45.2922C25.4798 45.3947 26.0862 45.4588 26.5182 45.4877C26.8797 45.5133 27.4093 45.5326 27.8125 45.5117C27.9389 45.5053 28.0749 45.4989 28.2157 45.4941C28.6333 45.4765 29.1085 45.4572 29.4749 45.4059C30.1741 45.3082 31.2925 45.1175 32.1437 44.9043C32.2797 44.8707 33.5181 44.5517 34.9581 43.8915C35.3661 43.704 35.9309 43.4155 36.3613 43.1719C36.6381 43.0164 36.9773 42.7969 37.2781 42.6046L37.5725 42.4155C37.9821 42.1558 38.4909 41.7504 38.8381 41.4699C39.0861 41.2696 39.3853 40.9955 39.6509 40.7535C39.7517 40.6622 39.8477 40.574 39.9373 40.4939C40.3133 40.1558 40.7549 39.6557 41.1085 39.2519L41.1629 39.1894C41.4541 38.8576 41.8605 38.3592 42.1245 37.9538C42.1981 37.84 42.2829 37.715 42.3693 37.5868C42.5613 37.2999 42.7597 37.0034 42.9085 36.7518C43.2541 36.1684 43.4941 35.7245 43.6413 35.3944C43.9709 34.6572 44.4141 33.609 44.6589 32.7997C45.0653 31.4535 45.2029 30.4952 45.2765 29.9807C45.3485 29.4791 45.4653 28.4406 45.4365 27.1232C45.4109 25.9245 45.2765 25.0831 45.1565 24.3411C45.0397 23.6119 44.8141 22.7385 44.4877 21.74C44.1885 20.8281 43.8205 20.0509 43.6013 19.5877C43.3165 18.9883 42.7933 18.0893 42.5005 17.6566C42.0973 17.062 42.0269 16.9562 41.6269 16.4386C41.3805 16.1196 40.9917 15.6661 40.8173 15.4738C40.6717 15.3135 40.3677 14.9818 40.0061 14.6292C39.5309 14.1676 39.1709 13.8648 39.1037 13.8087C38.4653 13.2798 38.3213 13.1756 37.8973 12.8695C37.6157 12.666 37.1949 12.3903 36.8269 12.166C36.4733 11.9496 35.9933 11.682 35.6333 11.4977C35.3501 11.3518 34.9517 11.1675 34.4141 10.9304C33.8429 10.6787 33.0653 10.4047 32.4781 10.2492C31.6829 10.0377 30.9309 9.83897 30.0989 9.73319C29.5021 9.65787 28.7837 9.58896 28.2653 9.55851C27.9117 9.53767 27.3997 9.53447 26.9613 9.54889C26.4478 9.56652 25.7966 9.59537 25.3134 9.67229C25.1902 9.69152 25.0526 9.71236 24.9118 9.73319C24.5854 9.78127 24.2478 9.83095 23.9742 9.88704C23.603 9.96397 22.9118 10.105 22.4414 10.2621C22.3166 10.3037 22.1806 10.347 22.0382 10.3935C21.7198 10.496 21.3902 10.6002 21.1262 10.7028C20.651 10.8855 20.0878 11.1275 19.6926 11.3182C19.2894 11.5137 18.7886 11.7781 18.4494 11.9785C18.0686 12.2028 17.5198 12.5346 17.1374 12.823C16.0078 13.6772 15.667 13.9353 14.8062 14.7879C14.2382 15.352 13.4942 16.2222 12.9134 17.0075C12.4622 17.6165 11.923 18.4899 11.571 19.179C11.331 19.6486 11.107 20.123 10.9694 20.4483C10.7806 20.8971 10.5518 21.5381 10.4286 21.8827C10.411 21.9307 10.003 23.0894 9.747 24.7017C9.6798 25.1264 9.6158 25.6649 9.587 26.0415C9.5534 26.479 9.5406 27.0543 9.5294 27.5159L9.5278 27.596C9.5198 27.9245 9.539 28.4101 9.579 28.8941C9.6206 29.3893 9.715 30.0737 9.771 30.4807C9.8462 31.032 10.0334 31.7676 10.171 32.3061C10.1726 32.3141 10.1742 32.3205 10.1774 32.3286C10.2686 32.625 10.395 33.0209 10.5294 33.4199C11.427 35.8415 13.0126 37.9698 15.1646 39.6381C15.1934 39.6605 15.2206 39.6814 15.2494 39.7038L15.0206 40.0051C14.2638 39.425 13.5758 38.7935 12.9582 38.1124Z" fill="white"/>
</svg>
