<svg width="1018" height="654" viewBox="0 0 1018 654" xmlns="http://www.w3.org/2000/svg">
    <g clip-path="url(#clip0_2_340)">
        <path d="M254.103 936.328C275.966 952.219 296.615 968.109 318.478 984C446.011 891.101 571.116 804.313 676.786 702.857L637.919 647.851L254.103 936.328ZM150.862 859.319C161.793 867.876 171.51 875.21 182.442 882.544C189.729 887.434 195.802 892.323 203.09 898.435L637.919 567.175L722.942 658.852C737.517 644.184 750.878 628.293 765.453 612.403L637.919 486.499L150.862 859.319ZM50.0494 779.866C67.0539 793.312 84.0584 806.758 99.8483 820.204L637.919 404.601L804.32 562.286C816.466 545.173 828.612 528.06 839.544 510.947L637.919 323.926L50.0494 779.866ZM-47.1191 696.745C-31.3292 710.191 -15.5394 724.86 0.250534 738.306L637.919 243.25L872.338 455.94C882.055 437.605 891.772 418.047 900.274 398.49L637.919 162.574L-47.1191 696.745ZM-137 606.291C-124.854 620.959 -110.279 635.628 -94.4888 652.741L637.919 80.6758L924.566 336.149C931.854 315.369 937.927 293.366 944 271.364L637.919 0L-137 606.291Z"/>
    </g>
    <defs>
        <clipPath id="clip0_2_340">
            <rect width="1018" height="654"/>
        </clipPath>
    </defs>
</svg>
