<svg width="1348" height="821" viewBox="0 0 1348 821" xmlns="http://www.w3.org/2000/svg">
    <g clip-path="url(#clip0_0_4)">
        <path d="M150.862 859.319C161.793 867.876 171.51 875.21 182.442 882.544C189.729 887.434 195.802 892.323 203.09 898.435L637.919 567.175L909.992 845.902C924.567 831.234 980.475 857.891 995.05 842L637.919 486.499L150.862 859.319ZM-37.2989 848.662C-20.2944 862.108 -3.28989 875.554 12.5 889L637.919 404.601L1199.78 933.883C1211.92 916.77 1224.07 899.657 1235 882.544L637.919 323.926L-37.2989 848.662ZM-47.1191 696.745C-31.3292 710.191 -15.5394 724.86 0.250534 738.306L637.919 243.25L1382.06 916.77C1391.78 898.435 1401.5 878.877 1410 859.319L637.919 162.574L-47.1191 696.745ZM-137 606.291C-124.854 620.959 -110.279 635.628 -94.4888 652.741L637.919 80.6758L1390.57 748.785C1397.85 728.005 1403.93 706.003 1410 684L637.919 0L-137 606.291Z"/>
        <path d="M150.862 1018.82C161.793 1027.38 171.51 1034.71 182.442 1042.04C189.729 1046.93 195.802 1051.82 203.09 1057.94L637.919 726.676L759.442 854.853C774.017 840.184 829.925 866.841 844.5 850.95L637.919 646L150.862 1018.82Z"/>
    </g>
    <defs>
        <clipPath id="clip0_0_4">
            <rect width="1348" height="821"/>
        </clipPath>
    </defs>
</svg>
