<svg width="725" height="466" viewBox="0 0 725 466" xmlns="http://www.w3.org/2000/svg">
    <g clip-path="url(#clip0_552_5784)">
        <path d="M180.205 667.446C195.784 678.769 210.497 690.092 226.076 701.416C316.953 635.218 406.099 573.376 481.397 501.081L453.701 461.885L180.205 667.446ZM106.638 612.572C114.427 618.669 121.351 623.895 129.14 629.121C134.333 632.605 138.661 636.089 143.854 640.444L453.701 404.398L514.285 469.725C524.671 459.272 534.192 447.949 544.578 436.626L453.701 346.911L106.638 612.572ZM34.8016 555.956C46.9185 565.537 59.0354 575.118 70.2868 584.699L453.701 288.552L572.274 400.914C580.928 388.72 589.583 376.526 597.373 364.331L453.701 231.065L34.8016 555.956ZM-34.438 496.726C-23.1866 506.307 -11.9352 516.76 -0.683746 526.341L453.701 173.578L620.741 325.135C627.665 312.07 634.589 298.134 640.648 284.198L453.701 116.091L-34.438 496.726ZM-98.4846 432.271C-89.8297 442.723 -79.4437 453.175 -68.1923 465.37L453.701 57.7324L657.957 239.775C663.15 224.968 667.478 209.29 671.805 193.611L453.701 0.245117L-98.4846 432.271Z"/>
    </g>
    <defs>
        <clipPath id="clip0_552_5784">
            <rect width="725" height="466"/>
        </clipPath>
    </defs>
</svg>
