<svg width="80" height="80" viewBox="0 0 80 80" fill="none" xmlns="http://www.w3.org/2000/svg">
    <circle cx="40" cy="40" r="40"/>
    <path d="M51.8801 45.9149V49.517C51.8814 49.8514 51.8129 50.1824 51.679 50.4888C51.545 50.7952 51.3485 51.0703 51.1021 51.2963C50.8557 51.5224 50.5648 51.6945 50.248 51.8016C49.9312 51.9088 49.5955 51.9486 49.2625 51.9185C45.5677 51.517 42.0185 50.2544 38.9003 48.2323C35.9991 46.3887 33.5395 43.9291 31.696 41.0279C29.6667 37.8955 28.4039 34.3291 28.0097 30.6177C27.9797 30.2856 28.0192 29.951 28.1256 29.635C28.232 29.3191 28.4031 29.0288 28.6278 28.7825C28.8526 28.5363 29.1262 28.3396 29.4311 28.2049C29.7361 28.0702 30.0658 28.0004 30.3992 28.0001H34.0013C34.5841 27.9944 35.149 28.2007 35.5908 28.5807C36.0326 28.9607 36.3212 29.4883 36.4028 30.0654C36.5548 31.2181 36.8368 32.35 37.2433 33.4394C37.4048 33.8691 37.4398 34.3362 37.344 34.7852C37.2483 35.2343 37.0258 35.6464 36.703 35.9729L35.178 37.4978C36.8873 40.5039 39.3763 42.9928 42.3824 44.7021L43.9073 43.1772C44.2337 42.8544 44.6459 42.6319 45.0949 42.5362C45.544 42.4404 46.011 42.4753 46.4408 42.6369C47.5302 43.0434 48.6621 43.3254 49.8148 43.4774C50.3981 43.5597 50.9308 43.8535 51.3116 44.3029C51.6924 44.7523 51.8947 45.326 51.8801 45.9149Z" stroke="white" stroke-width="2.5" stroke-linecap="round" stroke-linejoin="round"/>
</svg>
