<svg width="80" height="100" viewBox="0 0 80 100" fill="none" xmlns="http://www.w3.org/2000/svg">
<path d="M80 40C80 70 40 100 40 100C40 100 0 70 0 40C0 29.3913 4.21427 19.2172 11.7157 11.7157C19.2172 4.21427 29.3913 0 40 0C50.6087 0 60.7828 4.21427 68.2843 11.7157C75.7857 19.2172 80 29.3913 80 40Z" fill="#0CAECC"/>
<path fill-rule="evenodd" clip-rule="evenodd" d="M38.8927 70.1789C38.5271 69.9053 38.1616 69.6316 37.7857 69.3579L50.9864 59.4211L52.3232 61.3158C49.1669 64.3508 45.5066 67.0047 41.7251 69.7464C41.1523 70.1617 40.5767 70.579 39.9997 71C39.6237 70.7263 39.2582 70.4526 38.8927 70.1789ZM35.321 67.5053C34.945 67.2526 34.6108 67 34.2348 66.7053L50.9864 53.8632L55.3728 58.2C55.1997 58.389 55.0316 58.578 54.8651 58.7652C54.5492 59.1203 54.2389 59.4692 53.9107 59.8L50.9864 56.6421L36.0311 68.0526C35.7805 67.8421 35.5716 67.6737 35.321 67.5053ZM32.4803 65.3579C31.9372 64.8947 31.3524 64.4316 30.7675 63.9684L50.9864 48.2632L57.921 54.7053C57.5451 55.2946 57.1274 55.884 56.7098 56.4734L56.7096 56.4737L50.9864 51.0421L32.4803 65.3579ZM28.2401 61.821C27.9686 61.5789 27.6971 61.3368 27.4256 61.1053L50.9864 42.7053L60.0098 50.8316C59.7173 51.5053 59.3831 52.1789 59.0489 52.8105L50.9864 45.4842L29.0548 62.5368C28.7832 62.3053 28.5117 62.0632 28.2401 61.821ZM25.3052 59.0637C24.9509 58.6872 24.6227 58.3383 24.3342 57.9895L50.9864 37.1053L61.5136 46.4526C61.3048 47.2105 61.0959 47.9684 60.8452 48.6842L50.9864 39.8842L25.7963 59.5895C25.6282 59.407 25.4641 59.2326 25.3052 59.0637ZM61.9732 41.6526C61.9732 41.6526 62.0149 42.7053 61.9314 44.0105L50.9864 34.3263L23.0392 56.2632C22.6632 55.8 22.2873 55.2105 21.9531 54.6632C21.034 53.2316 20.2821 51.7579 19.6555 50.1158L19.5719 49.9053C18.6947 47.5895 18.1516 45.1895 18.0263 42.7474C17.7338 37.2316 19.9061 30.7895 23.4152 26.5368C27.0078 22.1579 32.1879 19.4211 38.4958 19.0421C39.0389 19 39.5402 19 40.0415 19H40.125H40.2504H40.2921C46.1824 19.0842 51.3624 21.2737 55.1221 24.8947C59.1743 28.8947 61.8896 35.3789 61.9732 41.6526ZM22.9141 51.6737C22.9141 51.8842 22.9559 52.0947 22.9977 52.2631L22.9559 52.221C21.5773 49.7368 20.7419 47.5053 20.3241 44.8105C20.2406 44.221 20.157 43.5895 20.1152 42.9579C19.4468 31.8 27.384 21.7368 38.7467 21.0631C39.248 21.021 39.7075 21.021 40.2088 21.021H40.2506H40.3759C45.7231 21.1053 50.4854 23.0842 53.7856 26.3684C57.0858 29.6105 59.2163 34.0737 59.8429 38.7053L51.0285 30.9158L48.5637 32.8526C48.2713 32.221 47.8954 31.5895 47.227 31.0842C47.1643 31.0421 47.0912 31 47.0181 30.9579C46.945 30.9158 46.8719 30.8737 46.8092 30.8316C46.6839 30.7474 46.5168 30.6631 46.3915 30.621C46.2903 30.5531 46.1619 30.5125 46.0502 30.4773C46.0235 30.4688 45.9979 30.4607 45.9737 30.4526C45.8902 30.4316 45.8171 30.4105 45.7439 30.3895C45.6708 30.3684 45.5977 30.3474 45.5142 30.3263C45.4855 30.3191 45.4581 30.3119 45.4315 30.3048C45.3029 30.271 45.1931 30.2421 45.0547 30.2421H44.5116C44.3445 30.2421 44.1356 30.2421 43.9685 30.2842C43.8301 30.2842 43.7203 30.3131 43.5918 30.347C43.5651 30.354 43.5377 30.3612 43.509 30.3684L43.133 30.4947L43.0077 30.3263L42.8824 30.1579L42.7571 30.0316L42.5064 29.7789C42.4647 29.7368 42.4124 29.7053 42.3602 29.6737C42.308 29.6421 42.2558 29.6105 42.214 29.5684C42.1305 29.4842 42.0469 29.4 41.9216 29.3579C41.8589 29.3368 41.8067 29.3053 41.7545 29.2737C41.7023 29.2421 41.65 29.2105 41.5874 29.1895C41.5038 29.1684 41.4307 29.1368 41.3576 29.1053C41.2845 29.0737 41.2114 29.0421 41.1279 29.021C41.0026 28.9789 40.8355 28.9368 40.6684 28.8948L40.6683 28.8947C40.5012 28.8526 40.3341 28.8105 40.167 28.8105H39.6658C39.4569 28.8105 39.248 28.8105 39.0391 28.8526C38.8303 28.8947 38.6632 28.9368 38.4543 29.021C38.2454 29.1053 38.0365 29.1895 37.8694 29.2737C37.8071 29.3114 37.7485 29.3453 37.6925 29.3778C37.5608 29.454 37.4436 29.5219 37.3264 29.6105C37.2428 29.6737 37.1697 29.7368 37.0966 29.8C37.0235 29.8631 36.9504 29.9263 36.8669 29.9895C36.8265 30.0301 36.7819 30.0708 36.7357 30.1128C36.6383 30.2014 36.5341 30.2963 36.4491 30.4105L36.0731 30.9158C36.0314 31 35.9791 31.0947 35.9269 31.1895C35.8747 31.2842 35.8225 31.3789 35.7807 31.4631C35.6972 31.5895 35.6136 31.7579 35.5718 31.9263C35.5301 32.0526 35.4883 32.221 35.4465 32.3895L35.4465 32.3895C35.4047 32.5579 35.363 32.7263 35.363 32.8947C35.3212 33.0631 35.3212 33.2316 35.3212 33.4V33.4V33.4421C35.2163 33.4685 35.1114 33.5115 35.0169 33.5503C34.9608 33.5733 34.9083 33.5948 34.8617 33.6105L34.3604 33.8631C34.1933 33.9474 34.0262 34.0737 33.8591 34.2C33.692 34.3263 33.5249 34.4526 33.3996 34.621L33.0236 35.1263C32.8983 35.2947 32.7729 35.5053 32.6894 35.6737C32.6476 35.7789 32.6058 35.8737 32.5641 35.9684C32.5223 36.0631 32.4805 36.1579 32.4387 36.2631C32.3552 36.4737 32.3134 36.6842 32.2716 36.8947C32.2299 37.1053 32.1881 37.3158 32.1881 37.5263V38.1579C32.1881 38.3684 32.2299 38.5789 32.2716 38.7895C32.3134 39 32.3552 39.1684 32.4387 39.3789C32.4596 39.421 32.4805 39.4737 32.5014 39.5263C32.5223 39.5789 32.5432 39.6316 32.5641 39.6737C32.6279 39.738 32.6673 39.8269 32.701 39.9028C32.7114 39.9263 32.7213 39.9485 32.7312 39.9684L32.8565 40.1368L32.8983 40.221C32.7729 40.2632 32.6894 40.3053 32.6058 40.3474C32.4805 40.3895 32.3552 40.4316 32.2299 40.5158L32.1881 40.5579C31.8539 40.7263 30.6007 41.6105 30.2247 43.4632C30.0782 43.3893 29.8674 43.3478 29.6769 43.3104C29.6501 43.3051 29.6238 43.2999 29.5981 43.2947C29.2639 43.2105 28.9715 43.2105 28.6373 43.2105C28.3031 43.2105 27.9689 43.2526 27.6347 43.3368C27.3005 43.421 27.008 43.5053 26.7156 43.6316C26.4232 43.7579 26.1308 43.9263 25.8801 44.0947C25.5877 44.3053 25.3371 44.5158 25.1282 44.7263C24.8775 44.9789 24.6687 45.2316 24.5016 45.4842L24.5016 45.4842C24.3345 45.779 24.1674 46.0737 24.042 46.3684C23.9167 46.7053 23.8332 47 23.7496 47.3368C23.6661 47.6737 23.6243 48.0105 23.6243 48.3474C23.6243 48.6502 23.6581 48.919 23.6952 49.2149C23.6994 49.2482 23.7036 49.2818 23.7079 49.3158C23.7287 49.3789 23.7392 49.4316 23.7496 49.4842C23.7601 49.5368 23.7705 49.5895 23.7914 49.6526C23.8123 49.6947 23.8227 49.7368 23.8332 49.7789C23.8436 49.821 23.8541 49.8631 23.8749 49.9053C23.2901 50.2842 22.9141 50.9158 22.9141 51.6737Z" fill="white"/>
</svg>
