<svg width="64" height="80" viewBox="0 0 64 80" fill="none" xmlns="http://www.w3.org/2000/svg">
<path d="M64 32C64 56 32 80 32 80C32 80 0 56 0 32C0 23.5131 3.37142 15.3737 9.37258 9.37258C15.3737 3.37142 23.5131 0 32 0C40.4869 0 48.6263 3.37142 54.6274 9.37258C60.6286 15.3737 64 23.5131 64 32V32Z" fill="black"/>
<path d="M26.8491 34.024C26.8491 34.3752 26.5695 34.6461 26.2418 34.6461C25.9143 34.6461 25.6348 34.3754 25.6348 34.024C25.6348 33.6723 25.9144 33.4016 26.2418 33.4016C26.5694 33.4016 26.8491 33.6724 26.8491 34.024Z" stroke="white" stroke-width="1.5"/>
<path d="M38.5669 34.024C38.5669 34.3753 38.2873 34.6461 37.9596 34.6461C37.6321 34.6461 37.3525 34.3754 37.3525 34.024C37.3525 33.6723 37.6322 33.4016 37.9596 33.4016C38.2872 33.4016 38.5669 33.6724 38.5669 34.024Z" stroke="white" stroke-width="1.5"/>
<path d="M23.7638 23.1239L23.7646 23.123C24.8056 22.0151 26.2308 21.3653 27.6347 20.9957C29.0339 20.6273 30.3535 20.5526 31.1142 20.5526H31.8544H31.9777C31.9847 20.5526 32.0032 20.5517 32.0323 20.5504C32.3248 20.5365 33.6939 20.4719 35.3801 20.731C37.2536 21.019 39.3451 21.6856 40.6828 23.1208L40.6857 23.1239C42.4474 24.9928 43.6085 27.6973 44.3276 30.2003C45.0429 32.6894 45.291 34.8708 45.2932 35.6355C45.2038 38.6805 44.0536 41.0491 42.0408 42.6715C40.008 44.31 37.0161 45.25 33.1499 45.25H31.2992C27.4327 45.25 24.425 44.3099 22.3844 42.6708C20.3641 41.048 19.2158 38.6805 19.1563 35.6389C19.1577 34.8459 19.4057 32.6615 20.1216 30.1773C20.8404 27.6834 22.0013 24.9936 23.7638 23.1239Z" stroke="white" stroke-width="1.5"/>
<mask id="path-5-inside-1_343_3862" fill="white">
<path d="M43.9101 24.2982C42.9848 24.3606 41.9978 23.924 41.1958 23.1754C39.6535 21.7407 39.4067 19.4952 40.6405 18.1228C41.1958 17.4368 42.1828 17.0626 43.2316 17H43.4167C44.4037 17 45.3291 17.3742 46.0078 17.9356C47.4884 19.308 47.1799 21.9277 45.9462 23.3C45.3907 23.924 44.7122 24.2359 43.9101 24.2982Z"/>
</mask>
<path d="M43.9101 24.2982L44.0109 25.7948L44.0187 25.7943L44.0264 25.7937L43.9101 24.2982ZM41.1958 23.1754L42.2193 22.0788L42.2174 22.0771L41.1958 23.1754ZM40.6405 18.1228L41.756 19.1257L41.782 19.0967L41.8065 19.0665L40.6405 18.1228ZM43.2316 17V15.5H43.1869L43.1422 15.5027L43.2316 17ZM46.0078 17.9356L47.0275 16.8355L46.9965 16.8067L46.9638 16.7798L46.0078 17.9356ZM45.9462 23.3L44.8307 22.2972L44.8258 22.3026L45.9462 23.3ZM43.8093 22.8016C43.4135 22.8283 42.8145 22.6345 42.2193 22.0788L40.1722 24.2719C41.1811 25.2136 42.5561 25.8928 44.0109 25.7948L43.8093 22.8016ZM42.2174 22.0771C41.137 21.0721 41.1869 19.7587 41.756 19.1257L39.525 17.12C37.6266 19.2317 38.17 22.4093 40.1741 24.2736L42.2174 22.0771ZM41.8065 19.0665C41.9981 18.8298 42.5059 18.546 43.3209 18.4973L43.1422 15.5027C41.8596 15.5792 40.3934 16.0438 39.4745 17.1792L41.8065 19.0665ZM43.2316 18.5H43.4167V15.5H43.2316V18.5ZM43.4167 18.5C44.0316 18.5 44.6236 18.7373 45.0518 19.0915L46.9638 16.7798C46.0345 16.0111 44.7758 15.5 43.4167 15.5V18.5ZM44.9881 19.0357C45.3225 19.3457 45.5281 19.8665 45.4965 20.5484C45.4645 21.2388 45.1915 21.8958 44.8307 22.2972L47.0617 24.3029C47.9346 23.3319 48.4327 21.9929 48.4933 20.6873C48.5542 19.3732 48.1737 17.8979 47.0275 16.8355L44.9881 19.0357ZM44.8258 22.3026C44.5435 22.6198 44.2331 22.7686 43.7938 22.8027L44.0264 25.7937C45.1912 25.7032 46.2379 25.2282 47.0665 24.2974L44.8258 22.3026Z" fill="white" mask="url(#path-5-inside-1_343_3862)"/>
<path d="M22.8656 19.0761L22.8719 19.0839L22.8784 19.0915C23.7385 20.0987 23.6314 21.893 22.3765 23.1135C21.6913 23.7508 20.899 24.0786 20.1003 24.0311L20.0782 24.0298L20.056 24.0298C19.5141 24.0296 19.0208 23.7845 18.566 23.3295C18.0887 22.7909 17.7776 21.9756 17.7517 21.1386C17.7258 20.2996 17.9865 19.5339 18.5287 19.0306C19.0645 18.5387 19.8066 18.2316 20.6727 18.2316H20.8345C21.7561 18.2907 22.4951 18.6181 22.8656 19.0761Z" stroke="white" stroke-width="1.5"/>
<path d="M32.4758 37.9439C34.571 37.9439 35.0948 36.66 35.0948 36.0181H29.3807C29.3807 36.981 29.8568 37.9439 32.4758 37.9439ZM32.4758 37.9439V39.1476M32.4758 39.1476C32.8726 40.0303 34.1424 41.555 36.0471 40.592M32.4758 39.1476C32.079 40.0303 30.8568 41.555 29.1426 40.592" stroke="white" stroke-width="1.5"/>
</svg>
