<svg width="64" height="80" viewBox="0 0 64 80" fill="none" xmlns="http://www.w3.org/2000/svg">
<path d="M64 32C64 56 32 80 32 80C32 80 0 56 0 32C0 23.5131 3.37142 15.3737 9.37258 9.37258C15.3737 3.37142 23.5131 0 32 0C40.4869 0 48.6263 3.37142 54.6274 9.37258C60.6286 15.3737 64 23.5131 64 32V32Z" fill="black"/>
<rect x="18.0732" y="22" width="27.8571" height="8.72742" rx="2" stroke="white" stroke-width="1.5"/>
<rect x="17" y="34.0002" width="30" height="5.45464" rx="2" stroke="white" stroke-width="1.5"/>
<path d="M19.1426 39.4543H23.4283V43.9999C23.4283 45.1045 22.5329 45.9999 21.4283 45.9999H21.1426C20.038 45.9999 19.1426 45.1045 19.1426 43.9999V39.4543Z" stroke="white" stroke-width="1.5"/>
<path d="M40.5703 39.4543H44.856V43.9999C44.856 45.1045 43.9606 45.9999 42.856 45.9999H42.5703C41.4657 45.9999 40.5703 45.1045 40.5703 43.9999V39.4543Z" stroke="white" stroke-width="1.5"/>
<path d="M23.4258 30.7277V34.0004M40.5686 30.7277V34.0004" stroke="white" stroke-width="1.5"/>
</svg>
