<svg width="44" height="52" viewBox="0 0 44 52" fill="none" xmlns="http://www.w3.org/2000/svg">
<path fill-rule="evenodd" clip-rule="evenodd" d="M20.8927 51.1789C20.5271 50.9053 20.1616 50.6316 19.7857 50.3579L32.9864 40.4211L34.3232 42.3158C31.1669 45.3508 27.5066 48.0047 23.7251 50.7464C23.1523 51.1617 22.5767 51.579 21.9997 52C21.6237 51.7263 21.2582 51.4526 20.8927 51.1789ZM17.321 48.5053C16.945 48.2526 16.6108 48 16.2348 47.7053L32.9864 34.8632L37.3728 39.2C37.1997 39.389 37.0316 39.578 36.8651 39.7652C36.5492 40.1203 36.2389 40.4692 35.9107 40.8L32.9864 37.6421L18.0311 49.0526C17.7805 48.8421 17.5716 48.6737 17.321 48.5053ZM14.4803 46.3579C13.9372 45.8947 13.3524 45.4316 12.7675 44.9684L32.9864 29.2632L39.921 35.7053C39.5451 36.2946 39.1274 36.884 38.7098 37.4734L38.7096 37.4737L32.9864 32.0421L14.4803 46.3579ZM10.2401 42.821C9.96862 42.5789 9.69708 42.3368 9.42555 42.1053L32.9864 23.7053L42.0098 31.8316C41.7173 32.5053 41.3831 33.1789 41.0489 33.8105L32.9864 26.4842L11.0548 43.5368C10.7832 43.3053 10.5117 43.0632 10.2401 42.821ZM7.30522 40.0637C6.9509 39.6872 6.62265 39.3383 6.33423 38.9895L32.9864 18.1053L43.5136 27.4526C43.3048 28.2105 43.0959 28.9684 42.8452 29.6842L32.9864 20.8842L7.79634 40.5895C7.62822 40.407 7.4641 40.2326 7.30522 40.0637ZM43.9732 22.6526C43.9732 22.6526 44.0149 23.7053 43.9314 25.0105L32.9864 15.3263L5.03922 37.2632C4.66324 36.8 4.28727 36.2105 3.95308 35.6632C3.03403 34.2316 2.28209 32.7579 1.65547 31.1158L1.57192 30.9053C0.694655 28.5895 0.151585 26.1895 0.026261 23.7474C-0.266161 18.2316 1.90612 11.7895 5.41519 7.53684C9.00781 3.15789 14.1879 0.421053 20.4958 0.0421053C21.0389 0 21.5402 0 22.0415 0H22.125H22.2504H22.2921C28.1824 0.0842105 33.3624 2.27368 37.1221 5.89474C41.1743 9.89474 43.8896 16.3789 43.9732 22.6526ZM4.91413 32.6737C4.91413 32.8842 4.95591 33.0947 4.99768 33.2631L4.95591 33.221C3.57735 30.7368 2.74185 28.5053 2.32411 25.8105C2.24056 25.221 2.15701 24.5895 2.11523 23.9579C1.44684 12.8 9.38402 2.73683 20.7467 2.06315C21.248 2.02104 21.7075 2.02104 22.2088 2.02104H22.2506H22.3759C27.7231 2.10525 32.4854 4.0842 35.7856 7.36841C39.0858 10.6105 41.2163 15.0737 41.8429 19.7053L33.0285 11.9158L30.5637 13.8526C30.2713 13.221 29.8954 12.5895 29.227 12.0842C29.1643 12.0421 29.0912 12 29.0181 11.9579C28.945 11.9158 28.8719 11.8737 28.8092 11.8316C28.6839 11.7474 28.5168 11.6631 28.3915 11.621C28.2903 11.5531 28.1619 11.5125 28.0502 11.4773C28.0235 11.4688 27.9979 11.4607 27.9737 11.4526C27.8902 11.4316 27.8171 11.4105 27.7439 11.3895C27.6708 11.3684 27.5977 11.3474 27.5142 11.3263C27.4855 11.3191 27.4581 11.3119 27.4315 11.3048C27.3029 11.271 27.1931 11.2421 27.0547 11.2421H26.5116C26.3445 11.2421 26.1356 11.2421 25.9685 11.2842C25.8301 11.2842 25.7203 11.3131 25.5918 11.347C25.5651 11.354 25.5377 11.3612 25.509 11.3684L25.133 11.4947L25.0077 11.3263L24.8824 11.1579L24.7571 11.0316L24.5064 10.7789C24.4647 10.7368 24.4124 10.7053 24.3602 10.6737C24.308 10.6421 24.2558 10.6105 24.214 10.5684C24.1305 10.4842 24.0469 10.4 23.9216 10.3579C23.8589 10.3368 23.8067 10.3053 23.7545 10.2737C23.7023 10.2421 23.65 10.2105 23.5874 10.1895C23.5038 10.1684 23.4307 10.1368 23.3576 10.1053C23.2845 10.0737 23.2114 10.0421 23.1279 10.021C23.0026 9.97895 22.8355 9.93685 22.6684 9.89475L22.6683 9.89473C22.5012 9.85262 22.3341 9.81052 22.167 9.81052H21.6658C21.4569 9.81052 21.248 9.81052 21.0391 9.85262C20.8303 9.89473 20.6632 9.93683 20.4543 10.021C20.2454 10.1053 20.0365 10.1895 19.8694 10.2737C19.8071 10.3114 19.7485 10.3453 19.6925 10.3778C19.5608 10.454 19.4436 10.5219 19.3264 10.6105C19.2428 10.6737 19.1697 10.7368 19.0966 10.8C19.0235 10.8631 18.9504 10.9263 18.8669 10.9895C18.8265 11.0301 18.7819 11.0708 18.7357 11.1128C18.6383 11.2014 18.5341 11.2963 18.4491 11.4105L18.0731 11.9158C18.0314 12 17.9791 12.0947 17.9269 12.1895C17.8747 12.2842 17.8225 12.3789 17.7807 12.4631C17.6972 12.5895 17.6136 12.7579 17.5718 12.9263C17.5301 13.0526 17.4883 13.221 17.4465 13.3895L17.4465 13.3895C17.4047 13.5579 17.363 13.7263 17.363 13.8947C17.3212 14.0631 17.3212 14.2316 17.3212 14.4V14.4V14.4421C17.2163 14.4685 17.1114 14.5115 17.0169 14.5503C16.9608 14.5733 16.9083 14.5948 16.8617 14.6105L16.3604 14.8631C16.1933 14.9474 16.0262 15.0737 15.8591 15.2C15.692 15.3263 15.5249 15.4526 15.3996 15.621L15.0236 16.1263C14.8983 16.2947 14.7729 16.5053 14.6894 16.6737C14.6476 16.7789 14.6058 16.8737 14.5641 16.9684C14.5223 17.0631 14.4805 17.1579 14.4387 17.2631C14.3552 17.4737 14.3134 17.6842 14.2716 17.8947C14.2299 18.1053 14.1881 18.3158 14.1881 18.5263V19.1579C14.1881 19.3684 14.2299 19.5789 14.2716 19.7895C14.3134 20 14.3552 20.1684 14.4387 20.3789C14.4596 20.421 14.4805 20.4737 14.5014 20.5263C14.5223 20.5789 14.5432 20.6316 14.5641 20.6737C14.6279 20.738 14.6673 20.8269 14.701 20.9028C14.7114 20.9263 14.7213 20.9485 14.7312 20.9684L14.8565 21.1368L14.8983 21.221C14.7729 21.2632 14.6894 21.3053 14.6058 21.3474C14.4805 21.3895 14.3552 21.4316 14.2299 21.5158L14.1881 21.5579C13.8539 21.7263 12.6007 22.6105 12.2247 24.4632C12.0782 24.3893 11.8674 24.3478 11.6769 24.3104C11.6501 24.3051 11.6238 24.2999 11.5981 24.2947C11.2639 24.2105 10.9715 24.2105 10.6373 24.2105C10.3031 24.2105 9.96886 24.2526 9.63467 24.3368C9.30047 24.421 9.00805 24.5053 8.71562 24.6316C8.4232 24.7579 8.13078 24.9263 7.88013 25.0947C7.58771 25.3053 7.33706 25.5158 7.12819 25.7263C6.87754 25.9789 6.66867 26.2316 6.50157 26.4842L6.50156 26.4842C6.33446 26.779 6.16737 27.0737 6.04205 27.3684C5.91672 27.7053 5.83317 28 5.74963 28.3368C5.66608 28.6737 5.6243 29.0105 5.6243 29.3474C5.6243 29.6502 5.65806 29.919 5.69523 30.2149C5.69941 30.2482 5.70363 30.2818 5.70785 30.3158C5.72874 30.3789 5.73918 30.4316 5.74963 30.4842C5.76007 30.5368 5.77051 30.5895 5.7914 30.6526C5.81229 30.6947 5.82273 30.7368 5.83317 30.7789C5.84362 30.821 5.85406 30.8631 5.87495 30.9053C5.2901 31.2842 4.91413 31.9158 4.91413 32.6737Z" fill="white"/>
</svg>
