<svg width="30" height="29" viewBox="0 0 30 29" fill="none" xmlns="http://www.w3.org/2000/svg">
<path d="M9.84912 17.024C9.84912 17.3752 9.5695 17.6461 9.24183 17.6461C8.91432 17.6461 8.63477 17.3754 8.63477 17.024C8.63477 16.6723 8.9144 16.4016 9.24183 16.4016C9.56942 16.4016 9.84912 16.6724 9.84912 17.024Z" stroke="white" stroke-width="1.5"/>
<path d="M21.5669 17.024C21.5669 17.3753 21.2873 17.6461 20.9596 17.6461C20.6321 17.6461 20.3525 17.3754 20.3525 17.024C20.3525 16.6723 20.6322 16.4016 20.9596 16.4016C21.2872 16.4016 21.5669 16.6724 21.5669 17.024Z" stroke="white" stroke-width="1.5"/>
<path d="M6.76378 6.12389L6.76462 6.123C7.80557 5.01512 9.23081 4.36533 10.6347 3.99567C12.0339 3.62725 13.3535 3.5526 14.1142 3.5526H14.8544H14.9777C14.9847 3.5526 15.0032 3.55172 15.0323 3.55035C15.3248 3.53654 16.6939 3.4719 18.3801 3.73105C20.2536 4.01898 22.3451 4.68558 23.6828 6.12081L23.6857 6.12387C25.4474 7.99278 26.6085 10.6973 27.3276 13.2003C28.0429 15.6894 28.291 17.8708 28.2932 18.6355C28.2038 21.6805 27.0536 24.0491 25.0408 25.6715C23.008 27.31 20.0161 28.25 16.1499 28.25H14.2992C10.4327 28.25 7.42503 27.3099 5.38443 25.6708C3.36414 24.048 2.21575 21.6805 2.15626 18.6389C2.15769 17.8459 2.40565 15.6615 3.12162 13.1773C3.84039 10.6834 5.00128 7.99356 6.76378 6.12389Z" stroke="white" stroke-width="1.5"/>
<path d="M24.7075 5.62712L24.7066 5.62625C23.3953 4.40638 23.2968 2.62698 24.1983 1.62427L24.2113 1.6098L24.2235 1.59467C24.594 1.13682 25.3328 0.809345 26.2548 0.75H26.4167C27.2096 0.75 27.9611 1.04965 28.5131 1.49979C29.04 1.99805 29.2842 2.75105 29.2457 3.5831C29.2065 4.42732 28.8773 5.25484 28.3884 5.79862L28.386 5.80134C27.968 6.27089 27.4747 6.50125 26.8559 6.55018C26.1961 6.59323 25.4048 6.27801 24.7075 5.62712Z" stroke="white" stroke-width="1.5"/>
<path d="M5.86559 2.07614L5.87187 2.0839L5.87836 2.0915C6.73855 3.09866 6.63141 4.89297 5.37654 6.11345C4.69129 6.75083 3.89904 7.07857 3.10027 7.03112L3.07815 7.0298L3.05599 7.0298C2.51409 7.02965 2.02076 6.78454 1.56604 6.32946C1.08866 5.79093 0.77761 4.9756 0.751737 4.13858C0.725805 3.29963 0.9865 2.53393 1.52871 2.03062C2.06447 1.53869 2.80657 1.23157 3.67266 1.23157H3.83448C4.75614 1.29067 5.49507 1.61815 5.86559 2.07614Z" stroke="white" stroke-width="1.5"/>
<path d="M15.4758 20.9439C17.571 20.9439 18.0948 19.66 18.0948 19.0181H12.3807C12.3807 19.981 12.8568 20.9439 15.4758 20.9439ZM15.4758 20.9439V22.1476M15.4758 22.1476C15.8726 23.0303 17.1424 24.555 19.0471 23.592M15.4758 22.1476C15.079 23.0303 13.8568 24.555 12.1426 23.592" stroke="white" stroke-width="1.5"/>
</svg>
