<svg width="26" height="29" viewBox="0 0 26 29" fill="none" xmlns="http://www.w3.org/2000/svg">
<path d="M5 1L1 6.4V25.3C1 26.0161 1.28095 26.7028 1.78105 27.2092C2.28115 27.7155 2.95942 28 3.66667 28H22.3333C23.0406 28 23.7189 27.7155 24.219 27.2092C24.719 26.7028 25 26.0161 25 25.3V6.4L21 1H5Z" stroke="white" stroke-width="1.5" stroke-linecap="round" stroke-linejoin="round"/>
<path d="M1 6.3999H25" stroke="white" stroke-width="1.5" stroke-linecap="round" stroke-linejoin="round"/>
<path d="M18.3327 11.8002C18.3327 13.2323 17.7708 14.6059 16.7706 15.6185C15.7704 16.6312 14.4138 17.2002 12.9993 17.2002C11.5849 17.2002 10.2283 16.6312 9.22811 15.6185C8.22792 14.6059 7.66602 13.2323 7.66602 11.8002" stroke="white" stroke-width="1.5" stroke-linecap="round" stroke-linejoin="round"/>
</svg>
