<svg width="34" height="21" viewBox="0 0 34 21" fill="none" xmlns="http://www.w3.org/2000/svg">
<rect x="12.9893" y="7.78833" width="8.0217" height="5.42308" stroke="white" stroke-width="1.5"/>
<rect x="3.8584" y="2.55786" width="4.10868" height="15.8846" rx="1.25" stroke="white" stroke-width="1.5"/>
<rect x="26.0342" y="2.55786" width="4.10868" height="15.8846" rx="1.25" stroke="white" stroke-width="1.5"/>
<rect x="20.8154" y="1.25" width="5.41302" height="18.5" rx="1.25" stroke="white" stroke-width="1.5"/>
<rect x="7.77051" y="1.25" width="5.41302" height="18.5" rx="1.25" stroke="white" stroke-width="1.5"/>
<path d="M4.05434 8.53833V7.78833H3.30434H2.5C1.80964 7.78833 1.25 8.34797 1.25 9.03833V11.9614C1.25 12.6518 1.80964 13.2114 2.5 13.2114H3.30434H4.05434V12.4614V8.53833Z" stroke="white" stroke-width="1.5"/>
<path d="M30.6953 7.78833H29.9453V8.53833V12.4614V13.2114H30.6953H31.4997C32.19 13.2114 32.7497 12.6518 32.7497 11.9614V9.03833C32.7497 8.34797 32.19 7.78833 31.4997 7.78833H30.6953Z" stroke="white" stroke-width="1.5"/>
</svg>
