<svg width="60" height="76" viewBox="0 0 60 76" fill="none" xmlns="http://www.w3.org/2000/svg">
<path d="M60 30.5C60 53 30 75.5 30 75.5C30 75.5 0 53 0 30.5C0 22.5435 3.16071 14.9129 8.7868 9.2868C14.4129 3.66071 22.0435 0.5 30 0.5C37.9565 0.5 45.5871 3.66071 51.2132 9.2868C56.8393 14.9129 60 22.5435 60 30.5V30.5Z" fill="white"/>
<path d="M30 41.75C36.2132 41.75 41.25 36.7132 41.25 30.5C41.25 24.2868 36.2132 19.25 30 19.25C23.7868 19.25 18.75 24.2868 18.75 30.5C18.75 36.7132 23.7868 41.75 30 41.75Z" fill="#0CAECC"/>
</svg>
