<svg width="747" height="485" viewBox="0 0 747 485" fill="none" xmlns="http://www.w3.org/2000/svg">
<g clip-path="url(#clip0_119_46)">
<path d="M236.103 936.328C257.966 952.219 278.615 968.109 300.478 984C428.011 891.101 553.116 804.313 658.786 702.857L619.919 647.851L236.103 936.328ZM132.862 859.319C143.793 867.876 153.51 875.21 164.442 882.544C171.729 887.434 177.802 892.323 185.09 898.435L619.919 567.175L704.942 658.852C719.517 644.184 732.877 628.293 747.453 612.403L619.919 486.499L132.862 859.319ZM32.0494 779.866C49.0539 793.312 66.0584 806.758 81.8483 820.204L619.919 404.601L786.32 562.286C798.466 545.173 810.612 528.06 821.544 510.947L619.919 323.926L32.0494 779.866ZM-65.1191 696.745C-49.3292 710.191 -33.5394 724.86 -17.7495 738.306L619.919 243.25L854.338 455.94C864.055 437.605 873.772 418.047 882.274 398.49L619.919 162.574L-65.1191 696.745ZM-155 606.291C-142.854 620.959 -128.279 635.627 -112.489 652.741L619.919 80.6758L906.566 336.149C913.854 315.369 919.927 293.366 926 271.364L619.919 0L-155 606.291Z" fill="#0CAECC"/>
</g>
<defs>
<clipPath id="clip0_119_46">
<rect width="747" height="485" fill="white"/>
</clipPath>
</defs>
</svg>
